<?xml version="1.0" encoding="utf-8"?>
<!-- Generator: Adobe Illustrator 28.2.0, SVG Export Plug-In . SVG Version: 6.00 Build 0)  -->
<svg version="1.1" id="Layer_1" xmlns="http://www.w3.org/2000/svg" xmlns:xlink="http://www.w3.org/1999/xlink" x="0px" y="0px"
	 viewBox="0 0 683 203.5" style="enable-background:new 0 0 683 203.5;" xml:space="preserve">
<style type="text/css">
	.st0{fill:#FFFFFF;}
</style>
<g>
	<path class="st0" d="M109.8,98.3c5.9,0,14-0.8,15.2-0.8c0.3,0,0.8,0.2,0.8,0.6c0,0.6-0.6,0.9-2.1,1.5c-3.9,1.9-4.3,4-4.3,29.3v3.3
		c0,28.4,0.3,30.6,4.3,32.5c1,0.5,2.1,1,2.1,1.6c0,0.4-0.2,0.6-0.8,0.6c-1.3,0-11-0.2-18.6-0.2c-6.5,0-14.5,0.2-15.7,0.2
		c-0.6,0-0.8-0.2-0.8-0.6c0-0.6,0.5-0.6,1.9-1.8c4.3-3.5,4.5-7.1,4.5-30.8c0-18.5-0.1-26.7-0.1-29.3c0-0.4-0.1-0.6-0.3-0.6
		c-0.2,0-0.3,0.2-0.5,0.7c-1.1,2.3-3,7.5-10.1,25c-5.1,12.5-10.2,24.9-15.2,37.5c-0.4,1-0.9,1-1.1,1c-0.2,0-0.5,0-1-0.9L42,109.9
		c-0.2-0.4-0.3-0.5-0.5-0.5c-0.2,0-0.4,0.1-0.4,0.5c-0.3,8.2-0.3,16.5-0.3,24.7c0,27.5,1.4,27.5,9.8,30.2c1.6,0.5,2.4,0.8,2.4,1.5
		c0,0.4-0.3,0.6-1,0.6c-1.4,0-8.4-0.6-12.6-0.6c-3.7,0-10.6,0.6-11.8,0.6c-0.6,0-1-0.2-1-0.8c0-0.4,0.4-0.5,1.7-1
		c9.1-2.4,10.8-3.1,10.8-31.4L39,111c0-7.6-1.5-9.5-6.3-11.1c-1.2-0.4-1.9-0.6-1.9-1.2s0.3-0.8,0.9-0.8c0.9,0,8.8,0.3,14.3,0.3
		c5.8-0.1,10.2-0.5,12.1-0.5c1.6,0,2.6,0.4,3.5,2.4l17.7,39.3c0.2,0.3,0.2,0.4,0.3,0.4c0.1,0,0.2-0.1,0.4-0.4l14.5-36.9
		c1.5-3.8,2.5-4.8,5.4-4.8C102.6,97.8,104.9,98.3,109.8,98.3z"/>
	<path class="st0" d="M191.7,158c0,5.7-2.2,9.9-13.1,9.9c-8.6,0-13.5-2.9-15-10.6c-2.2,7.4-8.4,10.6-17.1,10.6
		c-8,0-13.5-3.1-13.5-10.2c0-10.7,14.3-13.4,30.1-14.7v-8.9c0-7.8-3-9.7-7.9-9.7c-4.2,0-6.4,1.8-6.4,3.9c0,2.4,2.2,4.1,2.2,7
		c0,3.3-3.1,6-7.9,6c-4.9,0-7.9-2.7-7.9-7.1c0-5.8,6.2-11.6,22.7-11.6c15.6,0,26.6,4.3,26.6,20.8v15.3c0,2.6,1,3.8,2.5,3.8
		c1.6,0,2.8-1,2.8-4.6c0-0.6,0.4-0.9,1.1-0.9C191.4,157.2,191.7,157.4,191.7,158z M163.1,150.1v-5.1l-0.9,0.2
		c-4.8,1-6.9,1.7-8.7,3.4c-1.5,1.5-1.9,3.8-1.9,6.6c0,4.5,1.3,7.7,4.3,7.7C159.6,162.8,163.1,157.8,163.1,150.1z"/>
	<path class="st0" d="M261,166.5c0,0.4-0.2,0.6-0.9,0.6c-1.1,0-6.3-0.8-12.5-0.8c-5.8,0-14,0.8-15.2,0.8c-0.4,0-0.8-0.2-0.8-0.6
		c0-0.9,2.3-1.5,2.3-2.9c0-1.9-3.2-7-9.2-16c-0.9-1.4-1.5-2.1-2.1-2.1c-0.5,0-0.8,0.2-1.2,0.5l-0.9,0.6c0,12.5,0.2,16.6,4.2,18.5
		c1.5,0.7,2.1,0.4,2.1,1.4c0,0.5-0.3,0.8-0.9,0.8c-2.1,0-9.1-0.8-15-0.8c-6.2,0-14,0.8-15.1,0.8c-0.5,0-0.9-0.2-0.9-0.6
		c0-0.9,0.5-0.8,1.8-1.4c4-2,4.6-6.2,4.6-27.2v-12.1c0-4.6-0.6-5.6-5.5-8.8c-1.4-1-1.9-1.1-1.9-1.8c0-0.5,0.3-0.9,1.4-0.9
		c15.7,0,25.6-5,25.9-5c0.4,0,0.6,0.1,0.6,0.6c0,1-1.3,4.2-1.3,17v17.7c14.7-10,18-13,18-15.5c0-1.3-1.1-2.5-3.5-3.6
		c-1.4-0.6-2.1-0.9-2.1-1.4c0-0.3,0.2-0.5,0.8-0.5c0.8,0,7.3,0.8,11,0.8c3.3,0,9.1-0.6,10.5-0.6c0.6,0,0.9,0.2,0.9,0.6
		c0,0.8-1,1-4,1.6c-3.7,0.7-7.2,2.9-13.7,7.6l-1.4,1c6.4,9.9,14.7,21.2,21.8,29.9C260.4,165.7,261,165.8,261,166.5z"/>
	<path class="st0" d="M311.2,153.8c0,0.4-0.1,0.8-0.3,1.5c-2.6,7.3-11,12.6-22.6,12.6c-17,0-28-9.4-28-22.9
		c0-13.7,11.4-22.4,27.2-22.4c13.7,0,24,6.9,24,17.3c0,2.9-1.3,5-4.2,5l-26.7-0.1c0.2,12.8,3.8,18.5,13,18.5
		c7.3,0,13.3-3.1,15.9-9.1c0.3-0.8,0.4-1.1,1-1.1C310.8,153.2,311.2,153.4,311.2,153.8z M280.6,142.7l10.8-0.2
		c2.3,0,2.5-0.2,2.5-4.6c0-10.6-2.2-13.6-6.3-13.6C282.3,124.2,280.7,128.8,280.6,142.7z"/>
	<path class="st0" d="M365.9,131.9c0,5.6-2.9,8.9-7.5,8.9c-8.1,0-6.7-9.7-9.9-9.7c-4.2,0-6.2,11.2-6.3,20.1v3.2
		c0,7,1.4,8.9,6.3,10.6c1.6,0.6,2.1,0.9,2.1,1.4c0,0.5-0.2,0.7-0.9,0.7c-1.3,0-10.2-0.8-17.1-0.8c-6.2,0-14.1,0.8-15.2,0.8
		c-0.5,0-0.8-0.2-0.8-0.6c0-0.6,0.5-0.9,2.1-1.6c4.1-1.8,4.3-4.5,4.3-12.1v-14.3c0-6.3-0.3-8.7-4.2-10.4c-1.6-0.5-2.2-0.6-2.2-1.4
		c0-0.5,0.3-0.8,1.1-0.8c11.4,0,22.4-3.2,23.3-3.2c0.6,0,0.9,0.3,0.9,0.8c0,1.1-1.4,6.3-1,17.9h0.1c1.8-11.3,7.7-18.7,15.5-18.7
		C362.8,122.7,365.9,126.5,365.9,131.9z"/>
	<path class="st0" d="M376,164.4c-1.1,0-1.4,0.4-1.8,2.2c-0.1,0.8-0.4,1-0.9,1s-0.8-0.3-0.8-1c-0.1-0.5,0.1-2.7,0.1-5
		c0-4.6-1.1-9.4-1.1-10.7c0-0.6,0.3-0.8,0.6-0.8c0.4,0,0.7,0.3,1,1.1c3.5,10.3,11.7,15.1,20.6,15.1c5.6,0,8.6-2.4,8.6-6.2
		c0-3.1-1.2-5.3-9.1-7.1l-7.3-1.7c-10-2.5-14.7-5.9-14.7-14c0-9.7,9.8-14.6,21.3-14.6c9,0,15.3,3.7,17,3.7c1.1,0,1.4-1.1,1.7-2.5
		c0.1-0.8,0.4-1,0.9-1c0.4,0,0.9,0.3,0.9,1.1c0,8.5,2.2,12.5,2.2,13.4c0,0.4-0.2,0.6-0.6,0.6c-0.5,0-0.8-0.3-1.2-1
		c-4.5-8.5-12.5-12.9-19.8-12.9c-5.8,0-8.5,2.1-8.5,4.9c0,3.3,2.8,4.7,7.9,5.8l9.3,2.1c10.3,2.3,15.3,6.5,15.3,14.1
		c0,11.8-13.5,16.8-23.7,16.8C385.7,168,377.9,164.4,376,164.4z"/>
	<path class="st0" d="M482.2,144.8c0,14.1-8.6,23.2-21.7,23.2c-7,0-11.1-2.3-13.3-7.1v15.2c0,6.4,1.8,9.5,5.2,10.6
		c1.5,0.5,2.1,0.8,2.1,1.4c0,0.4-0.2,0.6-0.8,0.6c-2.1,0-10-0.8-16.1-0.8c-6.2,0-14,0.8-15.1,0.8c-0.6,0-0.8-0.2-0.8-0.6
		c0-0.6,0.5-0.9,1.9-1.6c3.7-2.1,4.3-7.2,4.3-17.7v-24.6c0-12-0.3-12.9-4.3-15.1c-1.6-1-2.2-1.1-2.2-1.8c0-0.5,0.2-0.8,1-0.8
		c10.5,0,22-3.2,23.2-3.2c0.5,0,0.8,0.1,0.8,0.6c0,1.1-1.4,5.8-1.4,14.7h0.2c1.3-9.5,5.9-15.8,17.2-15.8
		C473.6,122.7,482.2,131.6,482.2,144.8z M461.9,144.8c0-16.2-2.6-18.3-6.5-18.3c-4.9,0-8.4,6.2-8.5,18.3c-0.1,14.7,3.6,20,8.2,20
		C460.2,164.7,461.9,161,461.9,144.8z"/>
	<path class="st0" d="M547.5,158c0,5.7-2.2,9.9-13.1,9.9c-8.6,0-13.5-2.9-15-10.6c-2.2,7.4-8.4,10.6-17.1,10.6
		c-8,0-13.5-3.1-13.5-10.2c0-10.7,14.3-13.4,30.1-14.7v-8.9c0-7.8-3-9.7-7.9-9.7c-4.2,0-6.4,1.8-6.4,3.9c0,2.4,2.2,4.1,2.2,7
		c0,3.3-3.1,6-7.9,6c-4.9,0-7.9-2.7-7.9-7.1c0-5.8,6.2-11.6,22.7-11.6c15.6,0,26.6,4.3,26.6,20.8v15.3c0,2.6,1,3.8,2.5,3.8
		c1.6,0,2.8-1,2.8-4.6c0-0.6,0.4-0.9,1.1-0.9C547.1,157.2,547.5,157.4,547.5,158z M518.8,150.1v-5.1l-0.9,0.2
		c-4.8,1-6.9,1.7-8.7,3.4c-1.5,1.5-1.9,3.8-1.9,6.6c0,4.5,1.3,7.7,4.3,7.7C515.4,162.8,518.8,157.8,518.8,150.1z"/>
	<path class="st0" d="M599.6,153.3c0,0.1,0,0.2,0,0.2c-1.4,7-6.6,14.5-22.6,14.5c-15.6,0-26.2-8.9-26.2-21.9
		c0-14.5,11-23.3,29.1-23.3c8,0,11.8,2.7,13.6,2.7c1.5,0,2.1-1.2,2.4-2.6c0.2-0.6,0.5-0.9,1-0.9c0.4,0,0.8,0.3,0.8,1
		c0,11.2,1.5,17.2,1.5,18.1c0,0.6-0.2,0.9-0.8,0.9c-0.4,0-0.9-0.3-1.1-1.1c-2.7-10.6-7-16.2-13.4-16.2c-6.4,0-11.3,5-11.3,18.4
		c0,13.8,4.3,20,12.3,20c6.3,0,11.6-3.3,13.3-9.4c0.2-0.8,0.4-1,0.9-1C599.3,152.6,599.6,152.8,599.6,153.3z"/>
	<path class="st0" d="M656.1,153.8c0,0.4-0.1,0.8-0.3,1.5c-2.6,7.3-11,12.6-22.6,12.6c-17,0-28-9.4-28-22.9
		c0-13.7,11.4-22.4,27.2-22.4c13.7,0,24,6.9,24,17.3c0,2.9-1.3,5-4.2,5l-26.7-0.1c0.2,12.8,3.8,18.5,13,18.5
		c7.3,0,13.3-3.1,15.9-9.1c0.3-0.8,0.4-1.1,1-1.1C655.8,153.2,656.1,153.4,656.1,153.8z M625.5,142.7l10.8-0.2
		c2.3,0,2.5-0.2,2.5-4.6c0-10.6-2.2-13.6-6.3-13.6C627.3,124.2,625.6,128.8,625.5,142.7z"/>
	<path class="st0" d="M200.3,99.1c0,0.4-0.3,0.6-0.8,0.6c-0.9,0-6.5-0.5-10.2-0.5c-7.7,0-16.2,0.5-17.9,0.5c-0.4,0-0.6-0.2-0.6-0.5
		c0-0.4,0.3-0.6,1.1-1.1c0.5-0.4,1.1-0.8,1.1-1.5c0-1.3-3.6-11.6-8.1-20.6c-0.5-0.9-0.8-1.4-1.5-1.4c-0.7,0-1.8,1.2-2.5,2l0,0
		l-1.5,1.5c0.1,16.7,0.5,18.3,3.5,19.7c1.2,0.6,1.7,0.8,1.7,1.3c0,0.4-0.2,0.5-0.6,0.5c-1,0-8.4-0.6-14.1-0.6
		c-5.8,0-13.2,0.6-14.2,0.6c-0.4,0-0.6-0.2-0.6-0.5c0-0.5,0.4-0.7,1.7-1.3c3.4-1.5,3.6-3.4,3.6-26.7c0-23.4-0.2-25.3-3.6-26.9
		c-1.2-0.5-1.7-0.7-1.7-1.2c0-0.4,0.2-0.5,0.6-0.5c1,0,8.4,0.6,14.2,0.6c5.7,0,13.1-0.6,14.1-0.6c0.4,0,0.6,0.2,0.6,0.5
		c0,0.5-0.4,0.7-1.7,1.2c-3.3,1.6-3.5,3.5-3.5,26.9c0,1.9,0,3.7,0,5.3l12.4-13.1c5.4-5.7,7.9-11.7,7.9-14.2c0-2.3-1.3-3.8-4.2-5.1
		c-0.4-0.2-0.8-0.4-0.8-0.8s0.4-0.6,0.9-0.6c1,0,8.4,0.5,13.9,0.5c3.2,0,7.5-0.5,8.2-0.5c0.4,0,0.5,0.2,0.5,0.5
		c0,0.4-0.3,0.6-1.4,0.9c-4.1,0.9-8,3.1-14.1,9.6l-6.3,6.6c8.3,18.4,18.3,32.7,22,36.6C199.7,98.1,200.3,98.6,200.3,99.1z"/>
	<path class="st0" d="M256.3,99.3c0,0.4-0.2,0.5-0.6,0.5c-2.5,0-7.1-0.6-11.7-0.6c-4.5,0-10.1,0.6-11,0.6c-0.5,0-0.6-0.2-0.6-0.5
		c0-0.5,0.4-0.7,1.6-1.4c2-1.5,2.1-2.7,2.1-9.6V71.4c0-3.8-1.2-5.2-3.7-5.2c-4.2,0-8.2,5.6-8.2,16.5v4.5c0,8.1,0.3,9.8,2.6,10.8
		c1.2,0.5,1.7,0.7,1.7,1.2c0,0.4-0.2,0.5-0.6,0.5c-0.7,0-6.6-0.6-11.6-0.6c-5.1,0-11.6,0.6-12.5,0.6c-0.5,0-0.6-0.2-0.6-0.5
		c0-0.5,0.4-0.7,1.6-1.3c3.4-1.8,3.6-2.8,3.6-11.3V80c0-9.3-0.3-10.9-3.5-12.3c-1.2-0.4-1.7-0.5-1.7-1.2c0-0.4,0.2-0.6,0.8-0.6
		c8.6,0,19-2.7,19.9-2.7c0.4,0,0.6,0.1,0.6,0.5c0,0.6-0.7,4.9-0.8,10.8h0c1.6-7.3,6-11.3,13.4-11.3c10.4,0,14.8,4.8,14.8,15.1v9.9
		c0,7,0.4,8,3,9.7C255.8,98.6,256.3,98.7,256.3,99.3z"/>
	<path class="st0" d="M305.2,81.8c0,11.5-9.4,18.6-22.6,18.6S260,93.3,260,81.8s9.4-18.6,22.6-18.6S305.2,70.3,305.2,81.8z
		 M288.8,81.8c-0.1-14-2.1-17.3-6.1-17.4c-4,0.1-6,3.3-6.1,17.4c0.1,14,2.1,17.3,6.1,17.4C286.7,99.1,288.7,95.9,288.8,81.8z"/>
	<path class="st0" d="M353,99.2c0,0.4-0.2,0.6-0.6,0.6c-1,0-8.5-0.6-14-0.6c-4.7,0-10.5,0.6-11.3,0.6c-0.4,0-0.6-0.2-0.6-0.5
		c0-0.5,0.4-0.6,1.5-1.3c1.7-1.2,2.2-1.4,2.1-2.2c-0.1-1.2-1.7-3.2-7.3-11.3l-4.6,6.7c-1.5,2.1-2.1,3.7-2.1,4.7
		c0,1.2,0.7,1.9,2.7,2.4c1.2,0.3,1.5,0.4,1.5,0.9c0,0.5-0.3,0.6-0.8,0.6c-0.6,0-3.5-0.5-5.6-0.5c-3.5,0-7.4,0.5-8.1,0.5
		c-0.5,0-0.9-0.2-0.9-0.6c0-0.4,0.4-0.7,0.8-0.8c5.4-1.1,8-2.8,16.5-14.9c-0.4-0.7-0.9-1.3-1.4-2.1c-6.7-9.8-9.5-13.7-13.1-15.3
		c-1.4-0.6-1.8-0.9-1.8-1.4c0-0.5,0.2-0.7,0.7-0.7c0.7,0,7.2,0.6,12.7,0.6c4.8,0,10.8-0.6,11.6-0.6c0.4,0,0.6,0.2,0.7,0.5
		c0,0.5-0.4,0.6-1.7,1.4c-1.8,1.1-2.4,1.4-2.3,2.4c0.1,1.3,2.3,4.1,6.7,10l3.5-6c1.2-2.1,1.7-3.3,1.7-4.3c0-1.3-0.8-1.9-2.8-2.6
		c-1.4-0.4-1.7-0.6-1.7-1c0-0.3,0.2-0.5,0.6-0.5c1,0,4.9,0.5,7.7,0.5c2.9,0,6.1-0.5,6.7-0.5c0.6,0,0.9,0.2,0.9,0.6
		c0,0.4-0.2,0.7-1,0.9c-5.6,1.1-7.8,2.6-14.9,13.8c0.3,0.4,0.5,0.7,0.8,1.1c8.8,12.3,11.5,14.5,15.9,17.7
		C352.6,98.6,353,98.7,353,99.2z"/>
	<path class="st0" d="M375.7,101c-5.5-10.1-10.9-20.5-15-27.7c-2.6-4.7-3.6-6.2-4.9-7c-1.8-1.1-2.3-1.2-2.3-1.8
		c0-0.4,0.4-0.6,0.8-0.6c0.8,0,5.7,0.6,11.3,0.6c4.4,0,11.7-0.5,12.6-0.5c0.4,0,0.7,0.1,0.7,0.6c0,0.4-0.2,0.4-0.9,0.9
		c-1.5,0.9-2.2,2-2.2,3.5c0,2,1,4,6.4,15c0.3,0.4,0.4,0.5,0.5,0.5c0.2,0,0.3-0.1,0.5-0.7c4.2-8.6,5-12.2,5-14.5c0-2-1.1-3.4-4.5-3.9
		c-0.6-0.1-1-0.3-1-0.7c0-0.4,0.3-0.6,0.8-0.6c0.8,0,4.8,0.5,7.7,0.5c3.5,0,7.4-0.5,8.1-0.5c0.5,0,0.9,0.2,0.9,0.6
		c0,0.4-0.4,0.7-0.8,0.8c-6,0.9-7.8,3.7-10.6,9.9L377.3,101c-0.2,0.4-0.4,0.5-0.8,0.5C376,101.5,375.9,101.2,375.7,101z"/>
	<path class="st0" d="M402.9,99.4c0-0.5,0.4-0.6,1.7-1.3c3.2-1.6,3.5-4.6,3.5-14.2v-3.4c0-7.9-0.8-11.4-3.4-12.9
		c-1.3-0.7-1.8-0.8-1.8-1.4c0-0.4,0.3-0.5,1.2-0.5c16-0.4,19.4-2.8,20.8-2.8c0.4,0,0.7,0.3,0.7,0.6c0,0.7-0.6,1.3-1.1,3.2
		c-0.5,2.2-0.6,6.7-0.6,12.9v3.3c0,10.2,0.9,13.5,4.7,15.5c0.7,0.4,1.1,0.4,1.1,0.9c0,0.4-0.3,0.6-0.6,0.6c-1,0-7.8-0.6-13-0.6
		c-5.2,0-11.7,0.6-12.5,0.6C403.1,99.9,402.9,99.7,402.9,99.4z"/>
	<path class="st0" d="M434.6,99.3c0-0.5,0.4-0.8,1.5-1.5c3.4-2.2,3.7-5.5,3.7-21.7V65.7c0-13.1-0.5-15.3-4.5-18
		c-1.2-0.8-1.6-0.9-1.6-1.5c0-0.4,0.3-0.7,1.2-0.7c12.9,0,21.1-4.1,21.4-4.1c0.4,0,0.5,0.1,0.5,0.5c0,0.8-1.1,3.5-1.1,14V76
		c0,14.4,0.4,19,4.5,21.8c1.1,0.7,1.5,0.9,1.5,1.4c0,0.4-0.2,0.5-0.6,0.5c-1.1,0-8-0.6-13.3-0.6c-5.1,0-11.7,0.6-12.5,0.6
		C434.7,99.8,434.6,99.6,434.6,99.3z"/>
	<path class="st0" d="M466.9,99.3c0-0.5,0.4-0.8,1.5-1.5c3.4-2.2,3.7-5.5,3.7-21.7V65.7c0-13.1-0.5-15.3-4.5-18
		c-1.2-0.8-1.6-0.9-1.6-1.5c0-0.4,0.3-0.7,1.2-0.7c12.9,0,21.1-4.1,21.4-4.1c0.4,0,0.5,0.1,0.5,0.5c0,0.8-1.1,3.5-1.1,14V76
		c0,14.4,0.4,19,4.5,21.8c1.1,0.7,1.5,0.9,1.5,1.4c0,0.4-0.2,0.5-0.6,0.5c-1.1,0-8-0.6-13.3-0.6c-5.1,0-11.7,0.6-12.5,0.6
		C467.1,99.8,466.9,99.6,466.9,99.3z"/>
	<path class="st0" d="M537.8,88.9c0,0.4-0.1,0.6-0.3,1.2c-2.1,6.1-9.1,10.4-18.6,10.4c-14,0-23.1-7.7-23.1-18.9
		c0-11.3,9.4-18.4,22.4-18.4c11.3,0,19.8,5.7,19.8,14.2c0,2.4-1.1,4.1-3.5,4.1l-22-0.1c0.2,10.5,3.1,15.2,10.7,15.2
		c6.1,0,10.9-2.6,13.1-7.5c0.3-0.6,0.4-0.9,0.8-0.9C537.5,88.3,537.8,88.5,537.8,88.9z M512.6,79.6l8.9-0.1c1.9,0,2-0.2,2-3.8
		c0-8.7-1.8-11.2-5.2-11.2C514,64.5,512.7,68.2,512.6,79.6z"/>
	<g id="_x33_3hdpG_00000080918240333185181970000008206683989313804974_">
		<g>
			<path class="st0" d="M412.2,43.6c1.4-0.1,2.7-0.1,4.2-0.2c0,1.6,0,3.2,0,4.9c-1.4,0.1-2.8,0.2-4.2,0.2
				C412.2,46.8,412.2,45.2,412.2,43.6z"/>
			<path class="st0" d="M407.4,43.5c1.4,0,2.7,0,4.1,0c0,1.7,0,3.3,0,4.9c-1.3,0-2.7,0-4.1,0C407.4,46.7,407.4,45.1,407.4,43.5z"/>
			<path class="st0" d="M417.1,48.2c0-1.6,0-3.2,0-4.9c1.3-0.2,2.6-0.3,4-0.5c0,0.1,0.1,0.3,0.1,0.4c0,1.4,0,2.8,0,4.1
				c0,0.3-0.1,0.3-0.3,0.4c-1.1,0.1-2.1,0.3-3.2,0.4C417.4,48.1,417.3,48.1,417.1,48.2z"/>
			<path class="st0" d="M411.5,42.8c-1.4,0-2.7,0-4.1,0c0.1-1.7,0.2-3.3,0.3-4.9c1.3,0,2.6,0,3.9,0
				C411.5,39.6,411.5,41.2,411.5,42.8z"/>
			<path class="st0" d="M416.5,37.7c1.2-0.2,2.4-0.3,3.8-0.5c0.3,1.6,0.5,3.2,0.8,4.8c-1.4,0.2-2.7,0.4-4.1,0.5
				C416.8,41,416.7,39.3,416.5,37.7z"/>
			<path class="st0" d="M406.8,48.3c-0.4,0-0.8-0.1-1.3-0.1c-0.8-0.1-1.5-0.2-2.3-0.2c-0.2,0-0.3-0.1-0.3-0.3c0-1.5,0-3,0-4.6
				c1.3,0.1,2.5,0.2,3.9,0.4C406.8,45.1,406.8,46.7,406.8,48.3z"/>
			<path class="st0" d="M403.5,37.5c1.3,0.1,2.4,0.2,3.6,0.3c-0.1,1.6-0.2,3.2-0.3,4.9c-1.3-0.1-2.6-0.2-3.9-0.3
				C403.1,40.8,403.3,39.2,403.5,37.5z"/>
			<path class="st0" d="M398.9,42.4c1.1,0.2,2.2,0.4,3.2,0.5c0.1,0,0.2,0.1,0.2,0.2c0,1.5,0,3.1,0,4.7c-1.1-0.2-2.2-0.4-3.4-0.6
				C398.9,45.7,398.9,44.1,398.9,42.4z"/>
			<path class="st0" d="M412.2,53.2c0-1.4,0-2.8,0-4.1c1.4-0.1,2.7-0.2,4.1-0.2c0,0.1,0,0.1,0,0.2c-0.1,1.2-0.2,2.4-0.3,3.7
				c0,0.1-0.2,0.2-0.2,0.3C414.7,53.1,413.5,53.1,412.2,53.2z"/>
			<path class="st0" d="M421.7,42.7c1.1-0.2,2.2-0.5,3.3-0.8c0,0.7,0.1,1.4,0.1,2.2c0,0.8,0,1.6-0.1,2.4c0,0.1-0.1,0.3-0.2,0.3
				c-1.1,0.3-2.1,0.5-3.2,0.8C421.7,45.9,421.7,44.3,421.7,42.7z"/>
			<path class="st0" d="M403,37.5c-0.2,1.6-0.4,3.2-0.6,4.9c-1.1-0.2-2.2-0.4-3.4-0.6c0.3-1.6,0.6-3.2,0.9-4.8
				C400.9,37.1,402,37.3,403,37.5z"/>
			<path class="st0" d="M407.5,49.1c1.4,0,2.8,0,4.2,0c0,1.4,0,2.7,0,4.1c-1.2,0-2.5,0-3.8,0C407.7,51.7,407.6,50.4,407.5,49.1z"/>
			<path class="st0" d="M423.9,36.4c0.3,1.1,0.5,2.2,0.7,3.2c0.1,0.4,0.2,0.9,0.2,1.3c0,0.1-0.1,0.2-0.1,0.3
				c-1.1,0.2-2.1,0.5-3.2,0.7c0,0,0,0,0,0c-0.3-1.6-0.5-3.2-0.8-4.8C421.8,36.9,422.8,36.7,423.9,36.4z"/>
			<path class="st0" d="M415.9,37.1c-1.3,0.1-2.5,0.1-3.8,0.2c-0.1-1.6-0.1-3.1-0.2-4.6c1.1,0,2.1-0.1,3.3-0.1
				C415.4,34.1,415.6,35.6,415.9,37.1z"/>
			<path class="st0" d="M411.4,32.7c0,1.6,0,3.1,0,4.6c-1.2,0-2.4,0-3.7,0c0.1-1.1,0.3-2.1,0.4-3.2c0-0.4,0.1-0.7,0.1-1.1
				c0-0.1,0.2-0.3,0.3-0.3C409.4,32.7,410.4,32.7,411.4,32.7z"/>
			<path class="st0" d="M417,48.8c1.3-0.2,2.6-0.3,4-0.5c0,0.4,0,0.7-0.1,1.1c-0.2,0.9-0.3,1.9-0.5,2.8c0,0.2-0.1,0.3-0.3,0.3
				c-1.1,0.1-2.2,0.3-3.4,0.4C416.8,51.5,416.9,50.2,417,48.8z"/>
			<path class="st0" d="M415.6,32.5c0.8-0.1,1.6-0.2,2.4-0.3c0.1,0,0.3,0,0.4-0.1c0.2-0.1,0.3,0,0.4,0.2c0.4,1.4,0.9,2.8,1.4,4.2
				c-1.3,0.2-2.5,0.3-3.7,0.5C416.2,35.5,415.9,34,415.6,32.5z"/>
			<path class="st0" d="M406.9,49c0.1,1.4,0.3,2.7,0.4,4.1c-0.9-0.1-1.8-0.2-2.7-0.3c0,0-0.1,0-0.1,0c-0.8-0.1-0.8-0.1-1-0.9
				c-0.2-1.1-0.4-2.2-0.5-3.3C404.3,48.7,405.6,48.8,406.9,49z"/>
			<path class="st0" d="M407.8,32.7c-0.2,1.5-0.4,3-0.6,4.6c-1.1-0.1-2.3-0.2-3.5-0.3c0.1-0.4,0.1-0.7,0.2-0.9
				c0.3-1.1,0.6-2.2,0.9-3.3c0-0.1,0.2-0.3,0.3-0.2C405.9,32.5,406.8,32.6,407.8,32.7z"/>
			<path class="st0" d="M416.3,22.8c-0.2,0.5-0.6,0.7-1,0.8c-0.5,0.1-1,0.2-1.4,0.3c-0.1,0-0.3,0.1-0.4,0.1c-0.6,0.1-0.6,0.1-1-0.4
				c0.1,0.1,0.1,0.3,0.2,0.5c-0.3,0-0.6,0-0.9,0c-0.1,0-0.2-0.1-0.2-0.2c0-0.2,0-0.4-0.1-0.5c0,0.2,0,0.5,0,0.8c-0.3,0-0.7,0-1.1,0
				c0.1-0.3,0.2-0.5,0.3-0.8c0,0,0,0,0,0c-0.1,0.2-0.2,0.3-0.3,0.5c-0.1,0.3-0.2,0.3-0.5,0.2c-0.7-0.1-1.3-0.2-2-0.3
				c-0.4-0.1-0.9-0.4-1.3-0.6c-0.1-0.1-0.2-0.3-0.1-0.4c0-0.1,0.2-0.2,0.3-0.2c1.8-0.4,3.7-0.5,5.5-0.3c1.2,0.1,2.4,0.3,3.6,0.4
				C415.9,22.7,416.1,22.7,416.3,22.8z"/>
			<path class="st0" d="M403,26.4c0.9-0.7,1.7-1.3,2.6-2c0,0,0,0,0,0c-0.4,0.3-0.8,0.5-1.2,0.8c-0.5,0.4-0.9,0.7-1.4,1.1
				c-0.1,0.1-0.3,0.1-0.4,0.1c-0.3-0.1-0.5-0.3-0.8-0.4c0.1-0.1,0.2-0.2,0.2-0.2c0,0,0,0,0,0c-0.1,0-0.2,0.1-0.3,0.1
				c-0.3-0.2-0.4-0.5-0.4-0.8c0-0.2,0.1-0.4,0.2-0.5c1.3-0.7,2.7-1.3,4.2-1.7c-0.1,0.6,0.3,0.7,0.6,1c0.3,0.3,0.8,0.1,1.1,0.4
				c-0.3,0.2-0.6,0.5-0.9,0.7c-0.6,0.6-1.3,1.3-1.9,1.9c-0.1,0.1-0.2,0.1-0.3,0.1c-0.4-0.1-0.8-0.3-1.2-0.4
				C403.1,26.5,403.1,26.5,403,26.4z"/>
			<path class="st0" d="M396.9,36c0.9,0.3,1.7,0.5,2.5,0.8c-0.3,1.6-0.6,3.2-0.9,4.8c-0.9-0.3-1.8-0.6-2.7-0.9
				C396,39.1,396.3,37.5,396.9,36z"/>
			<path class="st0" d="M400,36.3c0.6-1.5,1.1-3,1.7-4.4c0.9,0.2,1.8,0.3,2.7,0.5c-0.4,1.5-0.8,3-1.2,4.5
				C402.1,36.7,401.1,36.5,400,36.3z"/>
			<path class="st0" d="M423.7,35.8c-1,0.2-2,0.4-2.9,0.6c-0.1,0-0.3-0.1-0.3-0.2c-0.4-1.4-0.9-2.7-1.3-4.1c0,0,0-0.1,0-0.1
				c0.6-0.1,1.2-0.3,1.9-0.4c0.7-0.2,0.7-0.2,1,0.5C422.6,33.3,423.2,34.5,423.7,35.8z"/>
			<path class="st0" d="M399,47.9c1.1,0.2,2.2,0.4,3.2,0.6c0.1,0,0.2,0.1,0.2,0.2c0.2,1.3,0.4,2.6,0.6,3.9c-0.3,0-0.6,0-0.9-0.1
				c-0.7-0.1-1.3-0.2-2-0.4c-0.1,0-0.2-0.2-0.3-0.3c-0.2-0.8-0.5-1.7-0.7-2.5C399.2,48.9,399.1,48.4,399,47.9z"/>
			<path class="st0" d="M421.7,48.2c1.1-0.2,2.2-0.5,3.3-0.8c-0.1,1.3-0.4,2.6-0.8,3.9c0,0.1-0.2,0.3-0.4,0.3
				c-0.9,0.2-1.9,0.4-2.8,0.7C421.2,51,421.4,49.6,421.7,48.2z"/>
			<path class="st0" d="M425.4,41.1c-0.4-1.6-0.7-3.2-1.1-4.8c0.7-0.3,1.5-0.6,2.3-0.9c0.3,0.9,0.6,1.8,0.8,2.8
				c0.1,0.5,0.3,1.1,0.3,1.7c0,0.1-0.1,0.3-0.2,0.3C426.9,40.5,426.1,40.8,425.4,41.1z"/>
			<path class="st0" d="M425.5,46.7c0-1.7,0-3.3,0-4.9c0.8-0.3,1.6-0.6,2.5-0.9c0,0.5,0.1,1,0.1,1.4c0,1,0,2.1,0,3.1
				c0,0.2-0.1,0.3-0.3,0.4C427,46.1,426.3,46.4,425.5,46.7z"/>
			<path class="st0" d="M425.2,14.8c0.1,0.8,0.3,1.6,0.3,2.3c0.1,1.2,0.8,1.9,1.9,2.2c0.1,0,0.2,0.1,0.3,0.1c0.1,0,0.2,0.1,0.3,0.2
				c-0.3,0.1-0.5,0.3-0.8,0.3c-1.1,0.3-1.7,1-1.8,2.1c-0.1,0.7-0.2,1.4-0.4,2.1c-0.1-0.4-0.2-0.9-0.2-1.3c-0.1-0.5-0.1-1-0.3-1.5
				c-0.2-0.7-0.8-1.1-1.5-1.3c-0.3-0.1-0.6-0.2-1-0.4c0.3-0.1,0.5-0.2,0.7-0.3c1.2-0.3,1.9-1,1.9-2.3c0-0.7,0.2-1.4,0.3-2.1
				C425.1,15,425.1,14.9,425.2,14.8z"/>
			<path class="st0" d="M397,35.4c0.7-1.4,1.4-2.7,2.1-4c0.1-0.1,0.2-0.2,0.3-0.2c0.6,0.2,1.3,0.4,1.9,0.6c-0.6,1.4-1.1,2.9-1.7,4.4
				C398.8,35.9,398,35.7,397,35.4z"/>
			<path class="st0" d="M384.9,20.3c0.3-0.1,0.6-0.2,0.8-0.3c1-0.3,1.6-0.9,1.7-2c0.1-0.7,0.2-1.4,0.3-2.1c0-0.1,0.1-0.2,0.1-0.4
				c0.1,0.9,0.3,1.7,0.4,2.5c0.1,1.1,0.7,1.6,1.6,1.9c0.3,0.1,0.5,0.2,0.9,0.3c-0.4,0.1-0.6,0.2-0.9,0.3c-0.4,0.2-0.9,0.4-1.2,0.8
				c-0.2,0.2-0.3,0.6-0.4,0.9c-0.2,0.8-0.3,1.6-0.5,2.4c0-0.2-0.1-0.4-0.1-0.6c-0.1-0.7-0.2-1.4-0.4-2.1c-0.1-0.6-0.5-0.9-1.1-1.2
				C385.8,20.6,385.4,20.5,384.9,20.3z"/>
			<path class="st0" d="M387.2,59.2c-0.1-0.8-0.3-1.6-0.4-2.5c-0.1-0.9-0.7-1.3-1.5-1.6c-0.3-0.1-0.6-0.2-1-0.4
				c0.4-0.1,0.7-0.3,1-0.4c0.9-0.3,1.5-0.9,1.5-1.9c0.1-0.8,0.2-1.5,0.4-2.3c0.1,0.5,0.2,1.1,0.3,1.6c0.1,0.4,0.1,0.9,0.2,1.3
				c0.1,0.6,0.6,0.9,1.1,1.2c0.4,0.2,0.8,0.3,1.3,0.5c-0.3,0.1-0.6,0.3-0.9,0.3c-1,0.3-1.6,0.9-1.7,2
				C387.6,57.8,387.4,58.5,387.2,59.2C387.3,59.2,387.3,59.2,387.2,59.2z"/>
			<path class="st0" d="M414.9,32c-1,0-2,0.1-3.1,0.1c-0.1-1.3-0.1-2.6-0.2-4c0.8,0,1.5-0.1,2.2-0.1c0.1,0,0.2,0.1,0.2,0.1
				C414.4,29.4,414.7,30.7,414.9,32C415,31.9,415,32,414.9,32z"/>
			<path class="st0" d="M412.2,56.8c0-1.1,0-2.1,0-3.1c1.3-0.1,2.5-0.1,3.8-0.2c-0.1,0.7-0.2,1.4-0.4,2.1c-0.1,0.3-0.1,0.8-0.3,1
				c-0.2,0.2-0.6,0.1-1,0.1C413.7,56.7,412.9,56.8,412.2,56.8z"/>
			<path class="st0" d="M418.6,31.6c-1.1,0.1-2.1,0.3-3.1,0.4c-0.4-1.3-0.7-2.6-1.1-3.9c0.5-0.1,1.1-0.1,1.6-0.2
				c0.5-0.1,0.7,0.1,0.9,0.5C417.5,29.3,418,30.4,418.6,31.6z"/>
			<path class="st0" d="M426.3,34.9c-0.8,0.3-1.5,0.6-2.2,0.8c-0.7-1.5-1.3-2.9-2-4.3c0.6-0.2,1.1-0.5,1.7-0.7c0.1,0,0.2,0,0.3,0.1
				C425,32,425.7,33.4,426.3,34.9z"/>
			<path class="st0" d="M408.3,32.1c0.3-1.4,0.5-2.7,0.8-4c0.8,0,1.5,0,2.3,0c0,1.3,0,2.6,0,4C410.4,32.1,409.4,32.1,408.3,32.1z"/>
			<path class="st0" d="M427.1,56.7c0.1,0.8,0.3,1.7,0.4,2.5c0.1,0.7,0.5,1.2,1.1,1.4c0.4,0.2,0.8,0.3,1.2,0.5
				c-0.4,0.2-0.8,0.3-1.1,0.4c-0.7,0.3-1.1,0.7-1.2,1.5c-0.1,0.8-0.2,1.5-0.4,2.3c0-0.3-0.1-0.5-0.1-0.8c-0.1-0.6-0.2-1.2-0.3-1.8
				c-0.1-0.6-0.5-1-1-1.2c-0.4-0.2-0.8-0.3-1.3-0.5c0.4-0.1,0.7-0.3,1.1-0.4c0.8-0.3,1.2-0.9,1.3-1.7c0.1-0.7,0.2-1.3,0.3-2
				C426.9,56.9,427,56.8,427.1,56.7C427,56.7,427.1,56.7,427.1,56.7z"/>
			<path class="st0" d="M415.9,56.6c0.2-1,0.4-2,0.6-3c0-0.1,0.1-0.2,0.2-0.2c1.1-0.2,2.2-0.3,3.4-0.4c0,0,0,0,0.1,0
				c-0.2,0.5-0.3,1-0.5,1.6c-0.1,0.4-0.3,0.7-0.5,1.1c-0.1,0.4-0.4,0.6-0.8,0.6C417.6,56.4,416.8,56.5,415.9,56.6z"/>
			<path class="st0" d="M395.8,47c0.9,0.3,1.8,0.5,2.6,0.8c0.1,0,0.2,0.2,0.2,0.3c0.3,1.3,0.6,2.6,0.8,3.8c-0.2-0.1-0.6-0.1-0.9-0.2
				c-0.4-0.1-0.9-0.3-1.3-0.4c-0.2-0.1-0.3-0.2-0.4-0.4C396.4,49.7,396.1,48.3,395.8,47z"/>
			<path class="st0" d="M407.3,53.6c0.2,1,0.5,2,0.7,3.1c-0.9-0.1-1.9-0.2-2.8-0.3c-0.1,0-0.2-0.1-0.2-0.2c-0.4-1-0.8-1.9-1.2-3
				C405,53.4,406.2,53.5,407.3,53.6z"/>
			<path class="st0" d="M395.3,40.6c-0.6-0.3-1.1-0.7-1.7-1c-0.1,0-0.1-0.2-0.1-0.2c0-0.8,0.9-3.8,1.3-4.5c0.6,0.3,1.2,0.6,1.7,0.9
				C396.1,37.4,395.7,39,395.3,40.6z"/>
			<path class="st0" d="M406.2,27.8c-0.5,1.1-0.9,2.2-1.4,3.2c-0.3,0.6-0.3,0.7-1,0.5c-0.6-0.1-1.2-0.2-1.9-0.4
				c0.5-0.9,1-1.7,1.5-2.5c0.2-0.4,0.5-0.7,0.7-1c0.1-0.2,0.3-0.3,0.5-0.2C405.2,27.7,405.7,27.8,406.2,27.8z"/>
			<path class="st0" d="M421.5,30.9c-0.9,0.2-1.7,0.4-2.5,0.6c-0.7-1.3-1.3-2.6-2-3.8c0.5-0.1,1.1-0.3,1.7-0.4
				c0.1,0,0.3,0.1,0.3,0.2c0.6,0.8,1.2,1.6,1.8,2.4C421,30.2,421.2,30.5,421.5,30.9z"/>
			<path class="st0" d="M395.3,46.2c-0.6-0.4-1.2-0.7-1.7-1c-0.1-0.1-0.2-0.2-0.2-0.3c-0.2-1.4-0.2-2.8-0.1-4.3
				c0-0.1,0.1-0.2,0.1-0.3c0.6,0.3,1.2,0.6,1.7,0.9c0.1,0,0.1,0.2,0.1,0.3C395.3,43,395.3,44.5,395.3,46.2z"/>
			<path class="st0" d="M396.7,35.2c-0.5-0.3-1.1-0.6-1.7-0.9c0.7-1.5,1.5-2.9,2.4-4.1c0.5,0.3,1,0.6,1.4,0.8
				C398.2,32.4,397.4,33.8,396.7,35.2z"/>
			<path class="st0" d="M404.6,56.4c-0.8-0.2-1.6-0.3-2.3-0.5c-0.1,0-0.3-0.1-0.4-0.3c-0.5-0.9-1-1.8-1.5-2.8c0-0.1,0-0.1-0.1-0.2
				c0.5,0.1,0.9,0.2,1.4,0.2c0.5,0.1,0.9,0.2,1.4,0.3c0.2,0,0.3,0.1,0.4,0.3C403.8,54.4,404.2,55.4,404.6,56.4z"/>
			<path class="st0" d="M428.2,40c-0.4-1.6-0.9-3.1-1.3-4.7c0.4-0.3,0.9-0.6,1.4-0.9c0.2,0.6,0.5,1.3,0.7,1.9
				c0.2,0.8,0.4,1.6,0.6,2.4c0,0.1-0.1,0.4-0.2,0.4C429.1,39.4,428.7,39.7,428.2,40z"/>
			<path class="st0" d="M419.5,56.1c0.4-1,0.8-2,1.2-3c0-0.1,0.1-0.2,0.2-0.2c0.9-0.2,1.8-0.4,2.7-0.6c0,0,0.1,0,0.2,0
				c-0.2,0.5-0.4,1-0.7,1.5c-0.3,0.5-0.6,1-0.9,1.5c-0.1,0.1-0.2,0.3-0.3,0.3C421.1,55.7,420.3,55.9,419.5,56.1
				C419.5,56.1,419.5,56.1,419.5,56.1z"/>
			<path class="st0" d="M399.5,30.5c0.7-0.9,1.3-1.7,2-2.5c0.3-0.3,0.6-0.6,0.8-0.9c0.1-0.2,0.3-0.2,0.5-0.1
				c0.4,0.1,0.8,0.3,1.2,0.4c-0.8,1.2-1.6,2.5-2.4,3.7C401,31,400.3,30.8,399.5,30.5z"/>
			<path class="st0" d="M428.4,45.5c0-0.8,0-1.6,0-2.4c0-0.7,0-1.3-0.1-2c0-0.4,0-0.6,0.4-0.7c0.4-0.2,0.8-0.5,1.2-0.8
				c0.1,1.3,0.3,2.5,0.1,3.7c0,0.1,0,0.2,0,0.3c0.1,0.8-0.4,1.2-1,1.6C428.8,45.3,428.6,45.4,428.4,45.5z"/>
			<path class="st0" d="M428.1,33.7c-0.5,0.3-1,0.7-1.4,0.9c-0.8-1.4-1.6-2.8-2.4-4.2c0.3-0.2,0.7-0.5,1.2-0.8
				C426.5,30.9,427.3,32.2,428.1,33.7z"/>
			<path class="st0" d="M419.1,27.2c0.4-0.2,0.8-0.3,1.2-0.5c0.1,0,0.2,0,0.2,0.1c1.1,1,2.1,2.1,3.1,3.4c-0.6,0.2-1.2,0.4-1.8,0.6
				c-0.1,0-0.2,0-0.2-0.1C420.8,29.5,420,28.4,419.1,27.2C419.1,27.2,419.1,27.2,419.1,27.2z"/>
			<path class="st0" d="M424.7,54.7c-2,1.9-4.3,3.5-7.3,3.8c0.1-0.1,0.1-0.1,0.1-0.2c0.5-0.5,0.9-1,1.3-1.5c0.2-0.3,0.5-0.5,0.8-0.5
				c0.6-0.1,1.3-0.3,2-0.5c-0.5,0.5-0.9,0.9-1.3,1.4c0,0,0,0,0.1,0.1c0.4-0.4,0.8-0.8,1.3-1.2c0.2-0.2,0.3-0.3,0.5-0.4
				C423.1,55.3,424,55,424.7,54.7z"/>
			<path class="st0" d="M429.8,45.1c-0.1,0.5-0.2,1-0.3,1.5c0.4-0.7,0.2-1.7,1-2.4c-0.1,0.5-0.2,1.1-0.4,1.6
				c-0.3,0.9-0.5,1.7-0.9,2.6c-0.4,0.9-1.2,1.6-2.1,2c0.2-0.5,0.4-1,0.5-1.5c0.2-0.8,0.4-1.7,0.6-2.5c0-0.2,0.1-0.3,0.3-0.4
				C428.9,45.7,429.3,45.5,429.8,45.1z"/>
			<path class="st0" d="M397.8,29.6c0.9-0.9,1.8-1.8,2.6-2.6c0.2-0.2,0.4-0.3,0.6-0.5c0.2-0.2,0.4-0.2,0.6-0.1
				c0.2,0.2,0.5,0.3,0.7,0.4c-0.5,0.5-0.9,1-1.4,1.5c-0.5,0.6-1,1.2-1.5,1.9c-0.1,0.2-0.2,0.2-0.4,0.1
				C398.7,30.1,398.3,29.9,397.8,29.6z"/>
			<path class="st0" d="M396.6,51c-0.5-0.3-1.1-0.6-1.5-0.9c-0.3-0.2-0.4-0.6-0.5-1c-0.3-1.1-0.6-2.1-0.9-3.2c0,0,0-0.1,0-0.1
				c0.6,0.3,1.2,0.6,1.8,1c0.1,0,0.1,0.1,0.1,0.2c0.4,1.3,0.8,2.6,1.2,3.9C396.6,50.9,396.6,50.9,396.6,51z"/>
			<path class="st0" d="M416.4,23.8c0-0.1,0.1-0.2,0.1-0.3c0.1-0.1,0.2-0.3,0.4-0.4c0.1-0.1,0.2-0.1,0.3-0.1c1,0.4,2,0.8,3,1.2
				c0.3,0.1,0.6,0.3,0.9,0.5c0.1,0.1,0.3,0.3,0.2,0.4c-0.1,0.2-0.1,0.5-0.5,0.3c0.1,0.1,0.1,0.1,0.1,0.2c-0.1,0.3-0.8,0.6-1.1,0.4
				c-0.6-0.4-1.1-0.8-1.7-1.2c-0.1-0.1-0.2-0.1-0.3-0.1C417.3,24.3,416.9,24.1,416.4,23.8z"/>
			<path class="st0" d="M397.4,51.8c0.8,0.3,1.6,0.5,2.4,0.8c0.1,0,0.2,0.2,0.2,0.4c0.4,0.8,0.9,1.6,1.3,2.5
				c0.1,0.1,0.2,0.2,0.3,0.4c-0.5-0.1-0.9-0.3-1.3-0.4c-1.2-0.3-1.7-1.3-2.2-2.2C397.8,52.8,397.6,52.3,397.4,51.8
				C397.3,51.8,397.3,51.8,397.4,51.8z"/>
			<path class="st0" d="M393.9,33.1c-0.1,0.6,0.2,1,0.6,1.4c0.1,0.1,0.1,0.3,0.1,0.4c-0.4,1.4-0.9,2.9-1.3,4.3
				c-0.3-0.3-0.6-0.6-0.7-1.2c0-1.7,0.6-3.3,1.2-4.8C393.8,33.1,393.8,33.1,393.9,33.1z"/>
			<path class="st0" d="M425.1,29.2c-0.4,0.3-0.8,0.5-1.2,0.8c-0.5-0.6-1.1-1.2-1.6-1.8c-0.5-0.6-1-1.1-1.5-1.7
				c0.1-0.1,0.3-0.3,0.6-0.4c0.1,0,0.2,0,0.3,0C422.9,27,424,28,425.1,29.2z"/>
			<path class="st0" d="M424.5,54.4c-0.6,0.6-1.4,0.7-2.1,1c0.3-0.4,0.6-0.9,0.8-1.3c0.3-0.6,0.6-1.2,0.9-1.8
				c0.1-0.1,0.1-0.2,0.2-0.3c0.7-0.3,1.4-0.5,2.1-0.8c-0.3,0.6-0.6,1.1-0.9,1.6c-0.3,0.4-0.5,0.8-0.8,1.3
				C424.7,54.2,424.6,54.3,424.5,54.4z"/>
			<path class="st0" d="M434.9,27.3c-0.4,0.2-0.9,0.4-1.2,0.6c-0.2,0.2-0.3,0.5-0.4,0.7c-0.1,0.5-0.2,1.1-0.4,1.7
				c-0.1-0.6-0.2-1.2-0.3-1.8c-0.1-0.5-0.4-0.7-0.8-0.9c-0.2-0.1-0.5-0.2-0.8-0.3c0.2-0.1,0.4-0.2,0.6-0.3c0.7-0.2,1-0.7,1.1-1.4
				c0.1-0.5,0.2-1,0.3-1.5c0.1,0.6,0.2,1.2,0.3,1.8c0.1,0.6,0.4,0.9,0.9,1.1C434.4,27.1,434.6,27.2,434.9,27.3z"/>
			<path class="st0" d="M411.7,27.6c-0.1-1-0.1-2-0.2-3c0.4,0,0.7-0.1,1-0.1c0.1,0,0.3,0.1,0.3,0.3c0.4,0.9,0.7,1.8,1.1,2.8
				C413.2,27.6,412.5,27.6,411.7,27.6z"/>
			<path class="st0" d="M413,24.4c0.4,0,0.7-0.1,1-0.1c0.1,0,0.2,0.1,0.3,0.1c0.7,0.9,1.4,1.8,2.1,2.7c0,0,0,0.1-0.1,0.1
				c-0.7,0.1-1.4,0.2-2.1,0.2C413.8,26.5,413.4,25.5,413,24.4z"/>
			<path class="st0" d="M412.1,57.2c1.1-0.1,2.1-0.1,3.2-0.2c-0.2,0.6-0.5,1.1-0.7,1.6c-0.1,0.3-0.3,0.5-0.7,0.5
				c-0.6,0-1.2,0.1-1.8,0.1C412.1,58.5,412.1,57.8,412.1,57.2z"/>
			<path class="st0" d="M411.7,59.2c-0.7,0-1.5-0.1-2.2-0.1c-0.1,0-0.2,0-0.2-0.1c-0.3-0.6-0.5-1.2-0.8-1.8c1.1,0,2.1,0,3.1,0
				C411.7,57.8,411.7,58.5,411.7,59.2z"/>
			<path class="st0" d="M411.3,24.5c0,1.1,0,2.1,0,3.1c-0.7,0-1.4,0-2.2,0c0.3-1,0.6-2,0.9-2.9c0-0.1,0.1-0.1,0.2-0.1
				C410.6,24.5,411,24.5,411.3,24.5z"/>
			<path class="st0" d="M396.5,29.4c0.1-0.1,0.2-0.1,0.2-0.2c0.2,0.3,0.4,0.6,0.6,0.8c-0.8,1.4-1.6,2.7-2.5,4
				c-0.4-0.2-0.7-0.7-0.6-1.3c0.2-0.3,0.3-0.6,0.5-0.8C395.3,31.1,395.9,30.2,396.5,29.4z"/>
			<path class="st0" d="M409.9,24.5c-0.4,1.1-0.7,2.1-1.1,3.1c-0.6-0.1-1.3-0.1-2-0.2c0.5-1.1,1.1-2,1.9-2.9c0-0.1,0.1-0.1,0.2-0.1
				C409.2,24.4,409.6,24.5,409.9,24.5z"/>
			<path class="st0" d="M418.7,56.6c-0.4,0.8-1,1.4-1.6,2c-0.1,0.1-0.4,0.2-0.5,0.2c-0.6,0.1-1.2,0.1-1.7,0.2
				c0.3-0.6,0.6-1.3,0.9-1.9c0-0.1,0.1-0.1,0.2-0.1c0.9-0.1,1.8-0.2,2.7-0.3C418.6,56.6,418.6,56.6,418.7,56.6z"/>
			<path class="st0" d="M433.4,54.1c0.3-0.1,0.5-0.2,0.7-0.3c0.5-0.2,0.8-0.5,0.9-1.1c0-0.5,0.2-1.1,0.3-1.6
				c0.1,0.5,0.2,1.1,0.3,1.6c0.1,0.5,0.3,0.8,0.7,0.9c0.3,0.1,0.5,0.2,0.8,0.3c-0.4,0.2-0.8,0.4-1.2,0.7c-0.2,0.1-0.3,0.4-0.3,0.6
				c-0.1,0.5-0.2,1-0.3,1.5c-0.1-0.4-0.2-0.9-0.2-1.3c0-0.5-0.2-0.9-0.7-1.1C434,54.4,433.7,54.3,433.4,54.1z"/>
			<path class="st0" d="M404.7,27.1c0.9-1.1,1.7-2,2.8-2.8c0.1-0.1,0.3-0.1,0.4-0.1c0.2,0,0.4,0.1,0.7,0.2c-0.4,0.5-0.7,1-1.1,1.5
				c-0.3,0.4-0.5,0.9-0.8,1.3c-0.1,0.1-0.3,0.2-0.4,0.2C405.8,27.3,405.3,27.2,404.7,27.1z"/>
			<path class="st0" d="M415.8,24.4c0.9,0.8,1.8,1.5,2.6,2.3c0,0,0,0.1,0,0.1c-0.5,0.1-1.1,0.2-1.6,0.4c-0.1,0-0.2-0.1-0.2-0.1
				c-0.7-0.9-1.4-1.9-2.2-2.8c0.4,0,0.8-0.3,1.2-0.1C415.7,24.2,415.7,24.3,415.8,24.4z"/>
			<path class="st0" d="M405.3,56.8c0.9,0.1,1.8,0.2,2.7,0.2c0.1,0,0.2,0.2,0.2,0.3c0.2,0.6,0.5,1.1,0.7,1.7c-0.1,0-0.3,0-0.4,0
				c-0.4,0-0.8-0.1-1.2-0.1c-0.4,0-0.7-0.2-0.9-0.5C406,57.9,405.7,57.4,405.3,56.8C405.3,56.9,405.3,56.8,405.3,56.8z"/>
			<path class="st0" d="M426.1,28.7c0.9,1,1.7,2.1,2.4,3.3c0.3,0.6,0.3,0.9-0.2,1.4c-0.8-1.3-1.7-2.6-2.6-4
				C425.8,29.3,425.9,29,426.1,28.7z"/>
			<path class="st0" d="M400.7,25.5c0.2,0.2,0.3,0.4,0.5,0.6c-1.2,1.1-2.3,2.2-3.4,3.3c-0.4-0.3-0.6-0.6-0.4-1
				c0.3-0.3,0.6-0.6,0.9-0.8C399,26.9,399.8,26.2,400.7,25.5z"/>
			<path class="st0" d="M429.9,38.7c-0.3-1.5-0.7-3-1.4-4.4c0-0.1,0-0.2,0-0.3c0.1-0.3,0.3-0.5,0.5-0.9c0.1,0.3,0.3,0.5,0.4,0.8
				c0.3,1.1,0.7,2.1,1,3.2C430.6,37.8,430.3,38.2,429.9,38.7z"/>
			<path class="st0" d="M415.8,24.4c-0.1-0.1-0.1-0.1-0.2-0.2c0-0.1-0.1-0.1-0.1-0.2c0.3-0.1,0.5-0.4,0.8-0.2c0.5,0.3,1,0.5,1.5,0.8
				c0.5,0.3,0.9,0.7,1.4,1.1c0.2,0.2,0.5,0.4,0.8,0.6c-0.5,0.2-0.9,0.3-1.3,0.4c-0.1,0-0.2-0.1-0.3-0.2c-0.8-0.7-1.5-1.3-2.3-2
				C416.1,24.4,415.9,24.4,415.8,24.4z"/>
			<path class="st0" d="M395,18.5c0.3-0.1,0.6-0.2,0.8-0.3c0.4-0.2,0.6-0.4,0.7-0.9c0.1-0.5,0.2-1,0.3-1.5c0.1,0.4,0.2,0.7,0.2,1.1
				c0,0.9,0.5,1.3,1.3,1.5c0,0,0.1,0,0.2,0.1c-0.2,0.1-0.5,0.2-0.7,0.2c-0.4,0.2-0.7,0.5-0.8,1c0,0.4-0.1,0.9-0.3,1.3
				c-0.1-0.4-0.2-0.8-0.2-1.2c-0.1-0.6-0.4-1-1-1.1C395.4,18.6,395.2,18.5,395,18.5z"/>
			<path class="st0" d="M394.3,61.1c0.3-0.1,0.5-0.2,0.7-0.3c0.4-0.2,0.7-0.5,0.8-1c0.1-0.5,0.2-0.9,0.3-1.4
				c0.1,0.5,0.1,0.9,0.2,1.4c0.1,0.5,0.4,0.8,0.8,0.9c0.2,0.1,0.4,0.2,0.6,0.3c-1.2,0.2-1.5,1-1.6,2c0,0.1-0.1,0.3-0.1,0.5
				c-0.1-0.4-0.2-0.8-0.2-1.1c0-0.8-0.5-1.2-1.2-1.3C394.6,61.2,394.5,61.2,394.3,61.1z"/>
			<path class="st0" d="M404.2,58.2c-0.5-0.4-0.9-0.9-1.4-1.3c-0.2-0.2-0.3-0.4-0.6-0.6c0.3,0.1,0.5,0.1,0.7,0.1
				c0.5,0.1,1,0.2,1.5,0.3c0.2,0,0.4,0.1,0.5,0.2c0.5,0.6,1,1.2,1.5,1.9C405.7,58.6,404.9,58.6,404.2,58.2L404.2,58.2z"/>
			<path class="st0" d="M392.4,39c0.2,0.3,0.5,0.6,0.7,0.9c0.1,0.1,0.1,0.2,0.1,0.4c0,1-0.1,2-0.1,2.9c0,0.5,0.1,1,0.1,1.6
				c-0.4-0.3-0.7-0.6-0.8-1c-0.3-1.5-0.3-3-0.2-4.6C392.3,39.1,392.4,39.1,392.4,39z"/>
			<path class="st0" d="M399,54.9c-0.7-0.2-1.2-0.6-1.6-1.1c-0.9-1-1.9-2.1-2.5-3.4c0-0.1-0.1-0.1-0.1-0.2c0.6,0.6,1.3,0.9,2.1,1.3
				c0.1,0,0.1,0.1,0.1,0.2c0.7,1,1.3,2,2,3C399,54.8,399,54.8,399,54.9z"/>
			<path class="st0" d="M421.7,25.8c0.1-0.2,0.2-0.3,0.3-0.6c0.7,0.6,1.5,1.1,2.2,1.7c0.4,0.3,0.7,0.6,1.1,1c0.4,0.4,0.4,0.5,0.1,1
				c0,0.1-0.1,0.1-0.1,0.2C424,27.9,422.9,26.9,421.7,25.8z"/>
			<path class="st0" d="M404.2,58.2c0,0,0.1,0.1,0.2,0.2c-2.4-0.6-4.1-2-5.8-3.5c0.5,0.3,1,0.6,1.5,0.9c0,0,0-0.1,0-0.1
				c0.6,0.2,1.3,0.3,1.9,0.6c0.3,0.1,0.5,0.5,0.8,0.8C403.2,57.4,403.7,57.8,404.2,58.2C404.2,58.2,404.2,58.2,404.2,58.2z"/>
			<path class="st0" d="M409.5,59.3c0.8,0,1.4,0,2.2,0c0,0.2,0,0.5,0,0.7c-2.7,0-5.3-0.5-7.9-1.6c1.2,0.3,2.3,0.5,3.4,0.7
				c0.5-0.1,1,0.1,1.4,0.1c0.6-0.1,0.8,0.5,1.4,0.7C409.9,59.7,409.7,59.5,409.5,59.3z"/>
			<path class="st0" d="M430.1,44.1c0-0.4,0.1-0.9,0.1-1.3c0-1-0.1-1.9-0.1-2.9c0-0.3,0-0.6,0.2-0.9c0.1-0.2,0.2-0.4,0.4-0.7
				c0.1,0.7,0.2,1.3,0.2,1.9c0,1-0.1,1.9-0.2,2.9c0,0.4-0.3,0.7-0.4,1.1C430.2,44.2,430.1,44.2,430.1,44.1z"/>
			<path class="st0" d="M424.5,54.4c0.1-0.1,0.2-0.2,0.3-0.3c0.5-0.8,1.1-1.6,1.6-2.4c0.2-0.4,0.4-0.8,0.9-1
				c0.3-0.1,0.5-0.3,0.7-0.5c0,0.1,0,0.3-0.1,0.4c-0.7,1.3-1.5,2.5-2.7,3.5c-0.2,0.1-0.4,0.2-0.6,0.3
				C424.7,54.4,424.6,54.4,424.5,54.4z"/>
			<path class="st0" d="M400.7,25.5c-0.8,0.7-1.7,1.3-2.5,2c-0.3,0.3-0.6,0.6-0.9,0.8c-0.1,0-0.2-0.1-0.2-0.1
				c0.1-0.2,0.1-0.5,0.3-0.7c1-1.1,2.1-2,3.4-2.7c0,0,0,0,0,0C400.8,25.1,400.7,25.3,400.7,25.5z"/>
			<path class="st0" d="M413.7,59.8c0.2-0.1,0.4-0.1,0.5-0.2c0.3-0.4,0.7-0.4,1.1-0.4c0.5,0,1,0,1.5-0.1c0.8-0.2,1.6-0.4,2.4-0.7
				c0,0,0.1,0,0.1,0.1c-0.3,0.1-0.6,0.2-0.9,0.3c-1.4,0.5-2.9,0.9-4.3,1.1C413.9,59.8,413.8,59.8,413.7,59.8L413.7,59.8z"/>
			<path class="st0" d="M396.5,29.4c-0.6,0.8-1.2,1.7-1.7,2.5c-0.2,0.3-0.3,0.6-0.5,0.8c-0.1,0-0.2-0.1-0.2-0.1
				c0-0.2,0.1-0.4,0.1-0.6c0.7-1.4,1.5-2.6,2.6-3.7C396.7,28.7,396.6,29,396.5,29.4z"/>
			<path class="st0" d="M392.6,44.7c0.5,0.5,0.8,1,1,1.6c0.3,1.1,0.7,2.1,1,3.1c0,0.1,0,0.1,0,0.3c-0.1-0.2-0.3-0.3-0.4-0.5
				c-0.4-1-0.8-2.1-1.2-3.1C392.8,45.7,392.7,45.2,392.6,44.7z"/>
			<path class="st0" d="M413.7,59.7c-0.6,0.1-1.1,0.2-1.8,0.3c0.1-0.3,0.1-0.5,0.1-0.8c0.7,0,1.4,0,2.1,0
				C414,59.4,413.8,59.6,413.7,59.7C413.7,59.8,413.7,59.7,413.7,59.7z"/>
		</g>
	</g>
</g>
</svg>
